<?xml version="1.0" encoding="UTF-8"?>
<svg width="24px" height="24px" viewBox="0 0 24 24" version="1.1" xmlns="http://www.w3.org/2000/svg" xmlns:xlink="http://www.w3.org/1999/xlink">
    <!-- Generator: sketchtool 62 (101010) - https://sketch.com -->
    <title>77A2B686-341E-4EB3-A902-BEFCA4BAAC14</title>
    <desc>Created with sketchtool.</desc>
    <defs>
        <path d="M20,4 L20,20 L4,20 L4,4 L20,4 Z M18,6 L6,6 L6,18 L18,18 L18,6 Z M17,0 L17,2 L2,2 L2,17 L0,17 L0,0 L17,0 Z M8.74703448,9.5 L8.74703448,11.5833892 L8.77824631,11.5833892 L10.2920197,9.5 L11.5560985,9.5 L10.0189163,11.5287685 L11.8370049,14.5875271 L10.5807291,14.5875271 L9.34005911,12.4417143 L8.74703448,13.2220099 L8.74703448,14.5875271 L7.6,14.5875271 L7.6,9.5 L8.74703448,9.5 Z M14.2247094,9.5 L14.4895764,9.50866995 C14.6623974,9.52022989 14.8277044,9.54334975 14.9854975,9.57802956 C15.2221872,9.63004926 15.4289655,9.71718227 15.6058325,9.83942857 C15.7826995,9.96167488 15.9231527,10.1242365 16.0271921,10.3271133 C16.1312315,10.5299901 16.1832512,10.7822857 16.1832512,11.084 C16.1832512,11.4585419 16.1013202,11.7667586 15.9374581,12.0086502 C15.7735961,12.2505419 15.5538128,12.4313103 15.2781084,12.5509557 L15.2781084,12.5509557 L16.4329458,14.5875271 L15.1454581,14.5875271 L14.1700887,12.7538325 L13.5380493,12.7538325 L13.5380493,14.5875271 L12.3910148,14.5875271 L12.3910148,9.5 L14.2247094,9.5 Z M14.1310739,10.4129458 L13.5380493,10.4129458 L13.5380493,11.8408867 L14.1310739,11.8408867 C14.4327882,11.8408867 14.6629754,11.7771626 14.8216355,11.6497143 C14.9802956,11.522266 15.0596256,11.3336946 15.0596256,11.084 C15.0596256,10.8343054 14.9802956,10.6600394 14.8216355,10.561202 C14.6629754,10.4623645 14.4327882,10.4129458 14.1310739,10.4129458 L14.1310739,10.4129458 Z" id="path-1"></path>
    </defs>
    <g id="Asset-Artboard-Page" stroke="none" stroke-width="1" fill="none" fill-rule="evenodd">
        <g id="Ikon---Felleskost-2">
            <g id="Farge" transform="translate(2.000000, 2.000000)">
                <mask id="mask-2" fill="white">
                    <use xlink:href="#path-1"></use>
                </mask>
                <g id="Mask"></g>
                <g mask="url(#mask-2)" fill="#000000" id="Rectangle">
                    <g transform="translate(-2.000000, -2.000000)">
                        <rect x="0" y="0" width="24" height="24"></rect>
                    </g>
                </g>
            </g>
        </g>
    </g>
</svg>