<?xml version="1.0" encoding="UTF-8"?>
<svg width="24px" height="24px" viewBox="0 0 24 24" version="1.1" xmlns="http://www.w3.org/2000/svg" xmlns:xlink="http://www.w3.org/1999/xlink">
    <!-- Generator: sketchtool 62 (101010) - https://sketch.com -->
    <title>C53F7172-BB9A-4671-A96A-AAE2B4E13046</title>
    <desc>Created with sketchtool.</desc>
    <defs>
        <path d="M20,8 L17,8 L17,6.21 C17,3.6 15.09,1.27 12.49,1.02 C9.51,0.74 7,3.08 7,6 L9,6 C9,4.87 9.6,3.76 10.64,3.3 C12.85,2.31 15,3.9 15,6 L15,8 L4,8 L4,22 L20,22 L20,8 Z M18,20 L6,20 L6,10 L18,10 L18,20 Z M12,17 C13.1,17 14,16.1 14,15 C14,13.9 13.1,13 12,13 C10.9,13 10,13.9 10,15 C10,16.1 10.9,17 12,17 Z" id="path-1"></path>
    </defs>
    <g id="Asset-Artboard-Page" stroke="none" stroke-width="1" fill="none" fill-rule="evenodd">
        <g id="Ikon---Lås-åpen">
            <mask id="mask-2" fill="white">
                <use xlink:href="#path-1"></use>
            </mask>
            <use id="Shape" fill="#000000" fill-rule="nonzero" xlink:href="#path-1"></use>
            <g id="Farge" mask="url(#mask-2)" fill="#000000">
                <rect id="Rectangle" x="0" y="0" width="24" height="24"></rect>
            </g>
        </g>
    </g>
</svg>