<?xml version="1.0" encoding="UTF-8"?>
<svg width="24px" height="24px" viewBox="0 0 24 24" version="1.1" xmlns="http://www.w3.org/2000/svg" xmlns:xlink="http://www.w3.org/1999/xlink">
    <!-- Generator: sketchtool 62 (101010) - https://sketch.com -->
    <title>D43FA7E9-8F4A-46E6-873A-F4875893496B</title>
    <desc>Created with sketchtool.</desc>
    <defs>
        <path d="M7,2 L11,6 L8,6 L8,10 L6,10 L6,6 L3,6 L7,2 M17,10 L13,6 L16,6 L16,2 L18,2 L18,6 L21,6 L17,10 M7,12 L17,12 C18.1045695,12 19,12.8954305 19,14 L19,20 C19,21.1045695 18.1045695,22 17,22 L7,22 C5.8954305,22 5,21.1045695 5,20 L5,14 C5,12.8954305 5.8954305,12 7,12 M7,14 L7,20 L17,20 L17,14 L7,14 Z" id="path-1"></path>
    </defs>
    <g id="Asset-Artboard-Page" stroke="none" stroke-width="1" fill="none" fill-rule="evenodd">
        <g id="Ikon---Heis">
            <polygon id="Path" points="0 0 24 0 24 24 0 24"></polygon>
            <mask id="mask-2" fill="white">
                <use xlink:href="#path-1"></use>
            </mask>
            <use id="Shape" fill="#000000" fill-rule="nonzero" xlink:href="#path-1"></use>
            <g id="Farge" mask="url(#mask-2)" fill="#000000">
                <rect id="Rectangle" x="0" y="0" width="24" height="24"></rect>
            </g>
        </g>
    </g>
</svg>