<?xml version="1.0" encoding="UTF-8"?>
<svg width="24px" height="24px" viewBox="0 0 24 24" version="1.1" xmlns="http://www.w3.org/2000/svg" xmlns:xlink="http://www.w3.org/1999/xlink">
    <!-- Generator: sketchtool 62 (101010) - https://sketch.com -->
    <title>7036F972-DDAC-40F0-989C-AF05EF7D9990</title>
    <desc>Created with sketchtool.</desc>
    <defs>
        <path d="M12,4 C8.68285714,4 6,6.504 6,9.6 C6,13.8 12,20 12,20 C12,20 18,13.8 18,9.6 C18,6.504 15.3171429,4 12,4 Z M12,11.6 C10.8171429,11.6 9.85714286,10.704 9.85714286,9.6 C9.85714286,8.496 10.8171429,7.6 12,7.6 C13.1828571,7.6 14.1428571,8.496 14.1428571,9.6 C14.1428571,10.704 13.1828571,11.6 12,11.6 Z" id="path-1"></path>
    </defs>
    <g id="Asset-Artboard-Page" stroke="none" stroke-width="1" fill="none" fill-rule="evenodd">
        <g id="Ikon---Kart">
            <polygon id="Path" points="0 0 24 0 24 24 0 24"></polygon>
            <mask id="mask-2" fill="white">
                <use xlink:href="#path-1"></use>
            </mask>
            <use id="Shape" fill="#1657E2" fill-rule="nonzero" xlink:href="#path-1"></use>
            <g id="Farge" mask="url(#mask-2)" fill="#000000">
                <rect id="Rectangle" x="0" y="0" width="24" height="24"></rect>
            </g>
        </g>
    </g>
</svg>