<?xml version="1.0" encoding="UTF-8"?>
<svg width="24px" height="24px" viewBox="0 0 24 24" version="1.1" xmlns="http://www.w3.org/2000/svg" xmlns:xlink="http://www.w3.org/1999/xlink">
    <!-- Generator: sketchtool 62 (101010) - https://sketch.com -->
    <title>AA0A2767-0669-40E8-8056-427CD5B6EBC9</title>
    <desc>Created with sketchtool.</desc>
    <defs>
        <path d="M4,7 L20,7 L20,17 L4,17 L4,7 M12,9.5 C13.4727593,9.5 14.6666667,10.6192881 14.6666667,12 C14.6666667,13.3807119 13.4727593,14.5 12,14.5 C10.5272407,14.5 9.33333333,13.3807119 9.33333333,12 C9.33333333,10.6192881 10.5272407,9.5 12,9.5 M7.55555556,8.66666667 C7.55555556,9.58714125 6.75961733,10.3333333 5.77777778,10.3333333 L5.77777778,13.6666667 C6.75961733,13.6666667 7.55555556,14.4128588 7.55555556,15.3333333 L16.4444444,15.3333333 C16.4444444,14.4128588 17.2403827,13.6666667 18.2222222,13.6666667 L18.2222222,10.3333333 C17.2403827,10.3333333 16.4444444,9.58714125 16.4444444,8.66666667 L7.55555556,8.66666667 Z" id="path-1"></path>
    </defs>
    <g id="Asset-Artboard-Page" stroke="none" stroke-width="1" fill="none" fill-rule="evenodd">
        <g id="Ikon---Penger">
            <polygon id="Path" points="0 0 24 0 24 24 0 24"></polygon>
            <mask id="mask-2" fill="white">
                <use xlink:href="#path-1"></use>
            </mask>
            <use id="Shape" fill="#1657E2" fill-rule="nonzero" xlink:href="#path-1"></use>
            <g id="Farge" mask="url(#mask-2)" fill="#000000">
                <rect id="Rectangle" x="0" y="0" width="24" height="24"></rect>
            </g>
        </g>
    </g>
</svg>