<?xml version="1.0" encoding="UTF-8"?>
<svg width="24px" height="24px" viewBox="0 0 24 24" version="1.1" xmlns="http://www.w3.org/2000/svg" xmlns:xlink="http://www.w3.org/1999/xlink">
    <!-- Generator: sketchtool 62 (101010) - https://sketch.com -->
    <title>322C92F2-3420-4832-901D-DB01F2ECC4FA</title>
    <desc>Created with sketchtool.</desc>
    <defs>
        <path d="M4,16 C4,16.88 4.39,17.67 5,18.22 L5,21 L8,21 L8,19 L16,19 L16,21 L19,21 L19,18.22 C19.61,17.67 20,16.88 20,16 L20,6 C20,2.5 16.42,2 12,2 C7.58,2 4,2.5 4,6 L4,16 Z M7.5,17 C6.67,17 6,16.33 6,15.5 C6,14.67 6.67,14 7.5,14 C8.33,14 9,14.67 9,15.5 C9,16.33 8.33,17 7.5,17 Z M16.5,17 C15.67,17 15,16.33 15,15.5 C15,14.67 15.67,14 16.5,14 C17.33,14 18,14.67 18,15.5 C18,16.33 17.33,17 16.5,17 Z M18,11 L6,11 L6,6 L18,6 L18,11 Z" id="path-1"></path>
    </defs>
    <g id="Asset-Artboard-Page" stroke="none" stroke-width="1" fill="none" fill-rule="evenodd">
        <g id="Ikon---Buss">
            <polygon id="Path" points="0 0 24 0 24 24 0 24"></polygon>
            <mask id="mask-2" fill="white">
                <use xlink:href="#path-1"></use>
            </mask>
            <use id="Shape" fill="#000000" fill-rule="nonzero" xlink:href="#path-1"></use>
            <g id="Farge" mask="url(#mask-2)" fill="#000000">
                <rect id="Rectangle" x="0" y="0" width="24" height="24"></rect>
            </g>
        </g>
    </g>
</svg>