<?xml version="1.0" encoding="UTF-8"?>
<svg width="24px" height="24px" viewBox="0 0 24 24" version="1.1" xmlns="http://www.w3.org/2000/svg" xmlns:xlink="http://www.w3.org/1999/xlink">
    <!-- Generator: sketchtool 62 (101010) - https://sketch.com -->
    <title>D7C8A359-7BB8-4642-9AD3-753053A919A2</title>
    <desc>Created with sketchtool.</desc>
    <defs>
        <path d="M0.306,11.3658266 C0.846,11.1679248 1.404,11.0689739 1.998,11.0689739 C3.204,11.0689739 4.257,11.4467865 5.157,12.2024117 L2.331,15.0270108 C1.377,13.9475462 0.702,12.7151574 0.306,11.3658266 M12.204,7.02098153 C13.977,8.34332569 15.894,8.66716508 17.946,7.99249969 C17.973,8.181406 18,8.52323646 18,9 C18,9.92654046 17.775,10.9610274 17.352,12.1034608 C16.929,13.2368986 16.407,14.1544436 15.795,14.8471 L10.098,9.17091523 L12.204,7.02098153 M6.093,13.1739299 C7.047,14.5502473 7.245,16.0525022 6.678,17.6896902 C5.4,17.3208731 4.257,16.7451586 3.303,15.9535513 L6.093,13.1739299 M9.171,10.0974557 L14.85,15.7916316 C12.897,17.5007839 10.602,18.220427 7.992,17.9415653 C8.181,17.3478597 8.28,16.700181 8.28,15.9985289 C8.28,15.4408056 8.154,14.7841313 7.902,14.0375016 C7.65,13.2908719 7.353,12.6791752 7.02,12.2024117 L9.171,10.0974557 M6.129,11.2488846 C5.292,10.5022549 4.32,10.0344869 3.222,9.818594 C2.124,9.61169662 1.071,9.67466539 0.054,10.0164958 C0.027,9.818594 0,9.47676354 0,9 C0,8.07345954 0.225,7.03897261 0.648,5.89653922 C1.071,4.76310137 1.593,3.84555644 2.205,3.15289998 L8.199,9.17091523 L6.129,11.2488846 M12.204,5.15890506 C10.998,3.67464121 10.719,2.05544428 11.367,0.310309814 C11.925,0.45423843 12.564,0.724104585 13.284,1.13789936 C13.995,1.54269859 14.58,1.94749782 15.03,2.33430598 L12.204,5.15890506 M17.694,6.64316891 C17.154,6.83207522 16.596,6.93102615 16.002,6.93102615 C15.021,6.93102615 14.076,6.64316891 13.176,6.04946337 L15.957,3.30582413 C16.749,4.29533337 17.325,5.4017846 17.694,6.64316891 M9.171,8.19939707 L3.15,2.20836844 C5.103,0.499216123 7.398,-0.220426957 10.017,0.0584347363 C9.819,0.652140277 9.72,1.29981905 9.72,2.00147105 C9.72,2.64914982 9.864,3.37778844 10.161,4.19638244 C10.458,5.00598091 10.8,5.65365968 11.25,6.13042322 L9.171,8.19939707 Z" id="path-1"></path>
    </defs>
    <g id="Asset-Artboard-Page" stroke="none" stroke-width="1" fill="none" fill-rule="evenodd">
        <g id="Ikon---Fritid">
            <g id="Farge" transform="translate(3.000000, 3.000000)">
                <mask id="mask-2" fill="white">
                    <use xlink:href="#path-1"></use>
                </mask>
                <use id="Mask" fill="#1657E2" fill-rule="nonzero" xlink:href="#path-1"></use>
                <g mask="url(#mask-2)" fill="#000000" id="Rectangle">
                    <g transform="translate(-3.000000, -3.000000)">
                        <rect x="0" y="0" width="24" height="24"></rect>
                    </g>
                </g>
            </g>
        </g>
    </g>
</svg>