<?xml version="1.0" encoding="UTF-8"?>
<svg width="24px" height="24px" viewBox="0 0 24 24" version="1.1" xmlns="http://www.w3.org/2000/svg" xmlns:xlink="http://www.w3.org/1999/xlink">
    <!-- Generator: sketchtool 62 (101010) - https://sketch.com -->
    <title>D8819958-DF06-4D0F-AADC-C79BAE2F2071</title>
    <desc>Created with sketchtool.</desc>
    <defs>
        <path d="M0,8.1 L9,0 L18,8.1 L15.3,8.1 L15.3,15.3 L2.7,15.3 L2.7,8.1 L0,8.1 M9,13.5 L9.648,12.906 C11.97,10.8 13.5,9.414 13.5,7.713 C13.5,6.327 12.411,5.238 11.025,5.238 C10.242,5.238 9.495,5.607 9,6.183 C8.505,5.607 7.758,5.238 6.975,5.238 C5.589,5.238 4.5,6.327 4.5,7.713 C4.5,9.414 6.03,10.8 8.352,12.906 L9,13.5 Z" id="path-1"></path>
    </defs>
    <g id="Asset-Artboard-Page" stroke="none" stroke-width="1" fill="none" fill-rule="evenodd">
        <g id="Ikon---Familie">
            <g id="Farge" transform="translate(3.000000, 4.000000)">
                <mask id="mask-2" fill="white">
                    <use xlink:href="#path-1"></use>
                </mask>
                <use id="Mask" fill="#1657E2" fill-rule="nonzero" xlink:href="#path-1"></use>
                <g mask="url(#mask-2)" fill="#000000" id="Rectangle">
                    <g transform="translate(-3.000000, -4.000000)">
                        <rect x="0" y="0" width="24" height="24"></rect>
                    </g>
                </g>
            </g>
        </g>
    </g>
</svg>