<?xml version="1.0" encoding="UTF-8"?>
<svg width="24px" height="24px" viewBox="0 0 24 24" version="1.1" xmlns="http://www.w3.org/2000/svg" xmlns:xlink="http://www.w3.org/1999/xlink">
    <!-- Generator: sketchtool 62 (101010) - https://sketch.com -->
    <title>D7560F40-1679-433F-A651-AA0FA329645E</title>
    <desc>Created with sketchtool.</desc>
    <defs>
        <path d="M12.2727273,0 L4.09090909,0 L0,4.90909091 L0,7.36363636 L1.63636364,7.36363636 C1.63636364,8.71924439 2.73530107,9.81818182 4.09090909,9.81818182 C5.44651711,9.81818182 6.54545455,8.71924439 6.54545455,7.36363636 L11.4545455,7.36363636 C11.4545455,8.71924439 12.5534829,9.81818182 13.9090909,9.81818182 C15.2646989,9.81818182 16.3636364,8.71924439 16.3636364,7.36363636 L18,7.36363636 L18,4.90909091 C18,4.00090909 17.2718182,3.27272727 16.3636364,3.27272727 L14.7272727,3.27272727 L12.2727273,0 M4.5,1.22727273 L7.77272727,1.22727273 L7.77272727,3.27272727 L2.86363636,3.27272727 L4.5,1.22727273 M9,1.22727273 L11.8636364,1.22727273 L13.4672727,3.27272727 L9,3.27272727 L9,1.22727273 M4.09090909,6.13636364 C4.7687131,6.13636364 5.31818182,6.68583235 5.31818182,7.36363636 C5.31818182,8.04144037 4.7687131,8.59090909 4.09090909,8.59090909 C3.41310508,8.59090909 2.86363636,8.04144037 2.86363636,7.36363636 C2.86363636,6.68583235 3.41310508,6.13636364 4.09090909,6.13636364 M13.9090909,6.13636364 C14.5868949,6.13636364 15.1363636,6.68583235 15.1363636,7.36363636 C15.1363636,8.04144037 14.5868949,8.59090909 13.9090909,8.59090909 C13.2312869,8.59090909 12.6818182,8.04144037 12.6818182,7.36363636 C12.6818182,6.68583235 13.2312869,6.13636364 13.9090909,6.13636364 Z" id="path-1"></path>
    </defs>
    <g id="Asset-Artboard-Page" stroke="none" stroke-width="1" fill="none" fill-rule="evenodd">
        <g id="Ikon---Bil">
            <g id="Farge" transform="translate(3.000000, 8.000000)">
                <mask id="mask-2" fill="white">
                    <use xlink:href="#path-1"></use>
                </mask>
                <use id="Mask" fill="#1657E2" fill-rule="nonzero" xlink:href="#path-1"></use>
                <g mask="url(#mask-2)" fill="#000000" id="Rectangle">
                    <g transform="translate(-3.000000, -8.000000)">
                        <rect x="0" y="0" width="24" height="24"></rect>
                    </g>
                </g>
            </g>
        </g>
    </g>
</svg>