<?xml version="1.0" encoding="UTF-8"?>
<svg width="24px" height="24px" viewBox="0 0 24 24" version="1.1" xmlns="http://www.w3.org/2000/svg" xmlns:xlink="http://www.w3.org/1999/xlink">
    <!-- Generator: sketchtool 62 (101010) - https://sketch.com -->
    <title>797BE0B0-6A29-4A22-9913-41A1033DDEF5</title>
    <desc>Created with sketchtool.</desc>
    <defs>
        <path d="M19.5214972,12.99 L19.5113809,13.01 C19.5518462,12.68 19.5923116,12.34 19.5923116,12 C19.5923116,11.66 19.5619626,11.34 19.5214972,11.01 L19.5316136,11.03 L22,9.11 L19.5417299,4.89 L16.6383409,6.05 L16.6484573,6.06 C16.1224077,5.66 15.5457764,5.32 14.9185635,5.06 L14.9286798,5.06 L14.4633283,2 L9.53667172,2 L9.09155286,5.07 L9.1016692,5.07 C8.47445625,5.33 7.89782499,5.67 7.37177542,6.07 L7.38189176,6.06 L4.46838644,4.89 L2,9.11 L4.46838644,11.03 L4.47850278,11.01 C4.43803743,11.34 4.40768842,11.66 4.40768842,12 C4.40768842,12.34 4.43803743,12.68 4.48861912,13.01 L4.47850278,12.99 L2.35407183,14.64 L2.02023268,14.9 L4.47850278,19.1 L7.39200809,17.95 L7.37177542,17.91 C7.90794133,18.32 8.48457258,18.66 9.12190187,18.92 L9.09155286,18.92 L9.54678806,22 L14.4532119,22 C14.4532119,22 14.483561,21.82 14.51391,21.58 L14.8983308,18.93 L14.8882145,18.93 C15.5154274,18.67 16.102175,18.33 16.6383409,17.92 L16.6181082,17.96 L19.5316136,19.11 L21.9898837,14.91 C21.9898837,14.91 21.8482549,14.79 21.6560445,14.65 L19.5214972,12.99 Z M11.9949418,15.5 C10.0424886,15.5 8.45422357,13.93 8.45422357,12 C8.45422357,10.07 10.0424886,8.5 11.9949418,8.5 C13.947395,8.5 15.5356601,10.07 15.5356601,12 C15.5356601,13.93 13.947395,15.5 11.9949418,15.5 Z" id="path-1"></path>
    </defs>
    <g id="Asset-Artboard-Page" stroke="none" stroke-width="1" fill="none" fill-rule="evenodd">
        <g id="Ikon---Innstillinger">
            <mask id="mask-2" fill="white">
                <use xlink:href="#path-1"></use>
            </mask>
            <use id="Shape" fill="#000000" fill-rule="nonzero" xlink:href="#path-1"></use>
            <g id="Farge" mask="url(#mask-2)" fill="#000000">
                <rect id="Rectangle" x="0" y="0" width="24" height="24"></rect>
            </g>
        </g>
    </g>
</svg>