<?xml version="1.0" encoding="UTF-8"?>
<svg width="24px" height="24px" viewBox="0 0 24 24" version="1.1" xmlns="http://www.w3.org/2000/svg" xmlns:xlink="http://www.w3.org/1999/xlink">
    <!-- Generator: sketchtool 62 (101010) - https://sketch.com -->
    <title>8CDBF14E-823D-4412-93A9-D8399F293860</title>
    <desc>Created with sketchtool.</desc>
    <defs>
        <path d="M20,2.01 L4,2 L4,22 L20,22 L20,2.01 Z M18,20 L6,20 L6,10.98 L18,10.98 L18,20 Z M18,9 L6,9 L6,4 L18,4 L18,9 Z M8,5 L10,5 L10,8 L8,8 L8,5 Z M8,12 L10,12 L10,17 L8,17 L8,12 Z" id="path-1"></path>
    </defs>
    <g id="Asset-Artboard-Page" stroke="none" stroke-width="1" fill="none" fill-rule="evenodd">
        <g id="Ikon---Kjøkken">
            <polygon id="Path" points="0 0 24 0 24 24 0 24"></polygon>
            <mask id="mask-2" fill="white">
                <use xlink:href="#path-1"></use>
            </mask>
            <use id="Shape" fill="#000000" fill-rule="nonzero" xlink:href="#path-1"></use>
            <g id="Farge" mask="url(#mask-2)" fill="#000000">
                <rect id="Rectangle" x="0" y="0" width="24" height="24"></rect>
            </g>
        </g>
    </g>
</svg>