<?xml version="1.0" encoding="UTF-8"?>
<svg width="24px" height="24px" viewBox="0 0 24 24" version="1.1" xmlns="http://www.w3.org/2000/svg" xmlns:xlink="http://www.w3.org/1999/xlink">
    <!-- Generator: sketchtool 62 (101010) - https://sketch.com -->
    <title>8A5ECBD1-1DD3-45C3-923C-341BD2F85C62</title>
    <desc>Created with sketchtool.</desc>
    <defs>
        <path d="M20,16.8 L20,20 L16.8,20 L16.8,17.6 L14.4,17.6 L14.4,15.2 L12,15.2 L10.192,13.392 C9.752,13.528 9.288,13.6 8.8,13.6 C6.1490332,13.6 4,11.4509668 4,8.8 C4,6.1490332 6.1490332,4 8.8,4 C11.4509668,4 13.6,6.1490332 13.6,8.8 C13.6,9.288 13.528,9.752 13.392,10.192 L20,16.8 M8,6.4 C7.1163444,6.4 6.4,7.1163444 6.4,8 C6.4,8.8836556 7.1163444,9.6 8,9.6 C8.8836556,9.6 9.6,8.8836556 9.6,8 C9.6,7.1163444 8.8836556,6.4 8,6.4 Z" id="path-1"></path>
    </defs>
    <g id="Asset-Artboard-Page" stroke="none" stroke-width="1" fill="none" fill-rule="evenodd">
        <g id="Ikon---Nøkkel">
            <polygon id="Path" points="0 0 24 0 24 24 0 24"></polygon>
            <mask id="mask-2" fill="white">
                <use xlink:href="#path-1"></use>
            </mask>
            <use id="Shape" fill="#000000" fill-rule="nonzero" xlink:href="#path-1"></use>
            <g id="Farge" mask="url(#mask-2)" fill="#000000">
                <rect id="Rectangle" x="0" y="0" width="24" height="24"></rect>
            </g>
        </g>
    </g>
</svg>