<?xml version="1.0" encoding="UTF-8"?>
<svg width="24px" height="24px" viewBox="0 0 24 24" version="1.1" xmlns="http://www.w3.org/2000/svg" xmlns:xlink="http://www.w3.org/1999/xlink">
    <!-- Generator: sketchtool 62 (101010) - https://sketch.com -->
    <title>8D578DF1-57AC-4FAE-BEB8-85392AEBEB74</title>
    <desc>Created with sketchtool.</desc>
    <defs>
        <path d="M9,0 C10.4497475,0 11.625,1.17525253 11.625,2.625 C11.625,4.07474747 10.4497475,5.25 9,5.25 C7.55025253,5.25 6.375,4.07474747 6.375,2.625 C6.375,1.17525253 7.55025253,0 9,0 M3.75,1.875 C4.17,1.875 4.56,1.9875 4.8975,2.19 C4.785,3.2625 5.1,4.3275 5.745,5.16 C5.37,5.88 4.62,6.375 3.75,6.375 C2.50735931,6.375 1.5,5.36764069 1.5,4.125 C1.5,2.88235931 2.50735931,1.875 3.75,1.875 M14.25,1.875 C15.4926407,1.875 16.5,2.88235931 16.5,4.125 C16.5,5.36764069 15.4926407,6.375 14.25,6.375 C13.38,6.375 12.63,5.88 12.255,5.16 C12.9,4.3275 13.215,3.2625 13.1025,2.19 C13.44,1.9875 13.83,1.875 14.25,1.875 M4.125,9.5625 C4.125,8.01 6.3075,6.75 9,6.75 C11.6925,6.75 13.875,8.01 13.875,9.5625 L13.875,10.875 L4.125,10.875 L4.125,9.5625 M0,10.875 L0,9.75 C0,8.7075 1.4175,7.83 3.3375,7.575 C2.895,8.085 2.625,8.79 2.625,9.5625 L2.625,10.875 L0,10.875 M18,10.875 L15.375,10.875 L15.375,9.5625 C15.375,8.79 15.105,8.085 14.6625,7.575 C16.5825,7.83 18,8.7075 18,9.75 L18,10.875 Z" id="path-1"></path>
    </defs>
    <g id="Asset-Artboard-Page" stroke="none" stroke-width="1" fill="none" fill-rule="evenodd">
        <g id="Ikon---Mennesker">
            <g id="Farge" transform="translate(3.000000, 7.000000)">
                <mask id="mask-2" fill="white">
                    <use xlink:href="#path-1"></use>
                </mask>
                <use id="Mask" fill="#1657E2" fill-rule="nonzero" xlink:href="#path-1"></use>
                <g mask="url(#mask-2)" fill="#000000" id="Rectangle">
                    <g transform="translate(-3.000000, -7.000000)">
                        <rect x="0" y="0" width="24" height="24"></rect>
                    </g>
                </g>
            </g>
        </g>
    </g>
</svg>