<?xml version="1.0" encoding="UTF-8"?>
<svg width="24px" height="24px" viewBox="0 0 24 24" version="1.1" xmlns="http://www.w3.org/2000/svg" xmlns:xlink="http://www.w3.org/1999/xlink">
    <!-- Generator: sketchtool 62 (101010) - https://sketch.com -->
    <title>72C17811-9E04-43BE-912D-4816F2598F42</title>
    <desc>Created with sketchtool.</desc>
    <defs>
        <path d="M21,21 L18.4285714,21 L18.4285714,10.2 L5.57142857,10.2 L5.57142857,21 L3,21 L3,7.8 L12,3 L21,7.8 L21,21 M6.85714286,11.4 L17.1428571,11.4 L17.1428571,13.8 L6.85714286,13.8 L6.85714286,11.4 M6.85714286,15 L17.1428571,15 L17.1428571,17.4 L6.85714286,17.4 L6.85714286,15 M17.1428571,18.6 L17.1428571,21 L6.85714286,21 L6.85714286,18.6 L17.1428571,18.6 Z" id="path-1"></path>
    </defs>
    <g id="Asset-Artboard-Page" stroke="none" stroke-width="1" fill="none" fill-rule="evenodd">
        <g id="Ikon---Garasje">
            <polygon id="Path" points="0 0 24 0 24 24 0 24"></polygon>
            <mask id="mask-2" fill="white">
                <use xlink:href="#path-1"></use>
            </mask>
            <use id="Shape" fill="#000000" fill-rule="nonzero" xlink:href="#path-1"></use>
            <g id="Farge" mask="url(#mask-2)" fill="#000000">
                <rect id="Rectangle" x="0" y="0" width="24" height="24"></rect>
            </g>
        </g>
    </g>
</svg>