<?xml version="1.0" encoding="UTF-8"?>
<svg width="24px" height="24px" viewBox="0 0 24 24" version="1.1" xmlns="http://www.w3.org/2000/svg" xmlns:xlink="http://www.w3.org/1999/xlink">
    <!-- Generator: sketchtool 62 (101010) - https://sketch.com -->
    <title>FA95A319-DCBC-4E34-934A-F06D911A4DE5</title>
    <desc>Created with sketchtool.</desc>
    <defs>
        <path d="M14,17 L12,17 L12,15 L10,15 L10,13 L12,13 L12,15 L14,15 M14,9 L12,9 L12,11 L14,11 L14,13 L12,13 L12,11 L10,11 L10,9 L12,9 L12,7 L10,7 L10,5 L12,5 L12,7 L14,7 M19,3 L5,3 C3.89,3 3,3.89 3,5 L3,19 C3,20.1045695 3.8954305,21 5,21 L19,21 C20.1045695,21 21,20.1045695 21,19 L21,5 C21,3.89 20.1,3 19,3 Z" id="path-1"></path>
    </defs>
    <g id="Asset-Artboard-Page" stroke="none" stroke-width="1" fill="none" fill-rule="evenodd">
        <g id="Ikon---Zip">
            <mask id="mask-2" fill="white">
                <use xlink:href="#path-1"></use>
            </mask>
            <use id="Shape" fill="#000000" fill-rule="nonzero" xlink:href="#path-1"></use>
            <g id="Farge" mask="url(#mask-2)" fill="#000000">
                <rect id="Rectangle" x="0" y="0" width="24" height="24"></rect>
            </g>
        </g>
    </g>
</svg>